<svg xmlns="http://www.w3.org/2000/svg" viewBox="0 0 640 260" role="img" aria-labelledby="dTitle dDesc">
  <title id="dTitle">Dealer network map visual</title>
  <desc id="dDesc">Icon-style map pin network and route lines.</desc>
  <defs>
    <linearGradient id="m1" x1="0" y1="0" x2="1" y2="0">
      <stop offset="0%" stop-color="#38bdf8"/>
      <stop offset="100%" stop-color="#818cf8"/>
    </linearGradient>
  </defs>
  <rect width="640" height="260" fill="#0f172a"/>
  <rect width="640" height="260" fill="url(#m1)" opacity="0.06"/>
  <circle cx="190" cy="170" r="120" fill="#1e293b" opacity="0.9"/>
  <path d="M120 175 L220 95 L300 130 L390 70 L520 130" stroke="#38bdf8" stroke-width="4" fill="none" stroke-linecap="round"/>
  <g>
    <circle cx="120" cy="175" r="11" fill="#38bdf8"/>
    <path d="M120 175 l-10 22 h20 z" fill="#0f172a"/>
    <text x="146" y="186" fill="#e2e8f0" font-family="Arial" font-size="15">Kathmandu</text>
  </g>
  <g>
    <circle cx="220" cy="95" r="11" fill="#818cf8"/>
    <path d="M220 95 l-10 22 h20 z" fill="#0f172a"/>
    <text x="246" y="106" fill="#e2e8f0" font-family="Arial" font-size="15">Lalitpur</text>
  </g>
  <g>
    <circle cx="300" cy="130" r="11" fill="#22d3ee"/>
    <path d="M300 130 l-10 22 h20 z" fill="#0f172a"/>
    <text x="326" y="140" fill="#e2e8f0" font-family="Arial" font-size="15">Bhaktapur</text>
  </g>
  <g>
    <circle cx="390" cy="70" r="11" fill="#a5b4fc"/>
    <path d="M390 70 l-10 22 h20 z" fill="#0f172a"/>
    <text x="416" y="82" fill="#e2e8f0" font-family="Arial" font-size="15">Pokhara</text>
  </g>
  <g>
    <circle cx="520" cy="130" r="11" fill="#38bdf8"/>
    <path d="M520 130 l-10 22 h20 z" fill="#0f172a"/>
    <text x="468" y="162" fill="#e2e8f0" font-family="Arial" font-size="15">Biratnagar</text>
  </g>
  <rect x="130" y="200" width="380" height="42" rx="10" fill="#1e293b"/>
  <text x="160" y="227" fill="#7dd3fc" font-family="Arial" font-size="16">Nationwide dealer coverage</text>
</svg>