<svg xmlns="http://www.w3.org/2000/svg" viewBox="0 0 1200 800" role="img" aria-labelledby="heroTitle heroDesc">
  <title id="heroTitle">Smart electronics showroom</title>
  <desc id="heroDesc">A modern electronics catalog visual with premium devices and clean gradients.</desc>
  <defs>
    <linearGradient id="g1" x1="0" y1="0" x2="1" y2="1">
      <stop offset="0%" stop-color="#0f172a"/>
      <stop offset="100%" stop-color="#1e3a8a"/>
    </linearGradient>
    <linearGradient id="g2" x1="0" y1="0" x2="1" y2="0">
      <stop offset="0%" stop-color="#38bdf8" stop-opacity="0.8"/>
      <stop offset="100%" stop-color="#818cf8" stop-opacity="0.8"/>
    </linearGradient>
  </defs>
  <rect width="1200" height="800" fill="url(#g1)"/>
  <rect x="50" y="120" width="500" height="300" rx="24" fill="#1e293b" opacity="0.85"/>
  <rect x="90" y="160" width="420" height="200" rx="16" fill="#0f172a"/>
  <rect x="120" y="190" width="360" height="130" fill="#334155" opacity="0.65"/>
  <rect x="125" y="210" width="120" height="70" fill="#64748b" rx="12"/>
  <rect x="260" y="210" width="95" height="70" fill="#94a3b8" rx="12"/>
  <rect x="370" y="210" width="95" height="70" fill="#cbd5e1" rx="12"/>
  <rect x="650" y="90" width="500" height="420" rx="24" fill="#334155" opacity="0.75"/>
  <rect x="700" y="130" width="400" height="180" rx="18" fill="#0f172a"/>
  <rect x="730" y="170" width="120" height="80" fill="#0ea5e9" rx="16"/>
  <rect x="875" y="170" width="140" height="80" fill="#6366f1" rx="16"/>
  <rect x="730" y="270" width="230" height="18" fill="#e2e8f0" opacity="0.35"/>
  <rect x="730" y="300" width="200" height="14" fill="#e2e8f0" opacity="0.25"/>
  <rect x="700" y="350" width="190" height="120" rx="14" fill="#1d4ed8"/>
  <rect x="920" y="350" width="180" height="120" rx="14" fill="#0ea5e9"/>
  <circle cx="940" cy="610" r="95" fill="#0ea5e9" opacity="0.22"/>
  <circle cx="1000" cy="670" r="65" fill="#818cf8" opacity="0.22"/>
  <text x="90" y="470" fill="#f8fafc" font-size="50" font-family="Arial" font-weight="700">PRATIBUDDHA</text>
  <text x="90" y="525" fill="#bae6fd" font-size="28" font-family="Arial">Premium Electronics</text>
  <text x="90" y="570" fill="#cbd5e1" font-size="20" font-family="Arial">Trusted dealer network • Reliable support</text>
  <rect x="90" y="610" width="180" height="52" rx="14" fill="url(#g2)"/>
  <text x="127" y="644" fill="#ffffff" font-size="20" font-family="Arial" font-weight="700">Explore Products</text>
  <rect x="290" y="610" width="180" height="52" rx="14" fill="#111827" stroke="#38bdf8"/>
  <text x="325" y="644" fill="#bae6fd" font-size="20" font-family="Arial" font-weight="700">Find Dealer</text>
</svg>